<svg xmlns="http://www.w3.org/2000/svg" width="192" height="120" viewBox="0 0 320 200" font-family="system-ui, -apple-system, sans-serif">
  <rect width="320" height="200" fill="#0f172a"/>
  
    <rect x="40" y="25" width="100" height="6" rx="2" fill="#e2e8f0"/><rect x="160" y="25" width="80" height="4" rx="2" fill="#64748b"/>
    <rect x="20" y="42" width="88" height="55" rx="4" fill="#1e293b"/><rect x="30" y="52" width="68" height="4" rx="2" fill="#e2e8f0"/><rect x="30" y="62" width="50" height="3" rx="2" fill="#64748b"/><rect x="30" y="72" width="60" height="3" rx="2" fill="#64748b"/>
    <rect x="116" y="42" width="88" height="55" rx="4" fill="#1e293b"/><rect x="126" y="52" width="68" height="4" rx="2" fill="#e2e8f0"/><rect x="126" y="62" width="50" height="3" rx="2" fill="#64748b"/><rect x="126" y="72" width="60" height="3" rx="2" fill="#64748b"/>
    <rect x="212" y="42" width="88" height="55" rx="4" fill="#1e293b"/><rect x="222" y="52" width="68" height="4" rx="2" fill="#e2e8f0"/><rect x="222" y="62" width="50" height="3" rx="2" fill="#64748b"/><rect x="222" y="72" width="60" height="3" rx="2" fill="#64748b"/>
    <rect x="20" y="105" width="88" height="55" rx="4" fill="#1e293b"/><rect x="30" y="115" width="68" height="4" rx="2" fill="#e2e8f0"/><rect x="30" y="125" width="50" height="3" rx="2" fill="#64748b"/><rect x="30" y="135" width="60" height="3" rx="2" fill="#64748b"/>
    <rect x="116" y="105" width="88" height="55" rx="4" fill="#1e293b"/><rect x="126" y="115" width="68" height="4" rx="2" fill="#e2e8f0"/><rect x="126" y="125" width="50" height="3" rx="2" fill="#64748b"/><rect x="126" y="135" width="60" height="3" rx="2" fill="#64748b"/>
    <rect x="212" y="105" width="88" height="55" rx="4" fill="#1e293b"/><rect x="222" y="115" width="68" height="4" rx="2" fill="#e2e8f0"/><rect x="222" y="125" width="50" height="3" rx="2" fill="#64748b"/><rect x="222" y="135" width="60" height="3" rx="2" fill="#64748b"/>
    <text x="160" y="188" fill="#64748b" font-size="11" text-anchor="middle" font-weight="500">Article List</text>
</svg>