<svg xmlns="http://www.w3.org/2000/svg" width="192" height="120" viewBox="0 0 320 200" font-family="system-ui, -apple-system, sans-serif">
  <rect width="320" height="200" fill="#0f172a"/>
  
    <rect x="100" y="30" width="120" height="6" rx="2" fill="#e2e8f0"/>
    <rect x="20" y="55" width="68" height="28" rx="14" fill="#f59e0b"/><text x="54" y="74" fill="#0f172a" font-size="10" text-anchor="middle" font-weight="600">All</text>
    <rect x="96" y="55" width="68" height="28" rx="14" fill="#1e293b"/><rect x="108" y="67" width="44" height="4" rx="2" fill="#e2e8f0"/>
    <rect x="172" y="55" width="68" height="28" rx="14" fill="#1e293b"/><rect x="184" y="67" width="44" height="4" rx="2" fill="#e2e8f0"/>
    <rect x="248" y="55" width="52" height="28" rx="14" fill="#1e293b"/><rect x="258" y="67" width="32" height="4" rx="2" fill="#e2e8f0"/>
    <rect x="20" y="100" width="60" height="55" rx="4" fill="#1e293b"/><rect x="28" y="108" width="44" height="30" rx="2" fill="#64748b"/><rect x="28" y="144" width="40" height="3" rx="2" fill="#e2e8f0"/>
    <rect x="88" y="100" width="60" height="55" rx="4" fill="#1e293b"/><rect x="96" y="108" width="44" height="30" rx="2" fill="#64748b"/><rect x="96" y="144" width="40" height="3" rx="2" fill="#e2e8f0"/>
    <rect x="156" y="100" width="60" height="55" rx="4" fill="#1e293b"/><rect x="164" y="108" width="44" height="30" rx="2" fill="#64748b"/><rect x="164" y="144" width="40" height="3" rx="2" fill="#e2e8f0"/>
    <rect x="224" y="100" width="60" height="55" rx="4" fill="#1e293b"/><rect x="232" y="108" width="44" height="30" rx="2" fill="#64748b"/><rect x="232" y="144" width="40" height="3" rx="2" fill="#e2e8f0"/>
    <text x="160" y="188" fill="#64748b" font-size="11" text-anchor="middle" font-weight="500">Category Navigation</text>
</svg>