<svg xmlns="http://www.w3.org/2000/svg" width="192" height="120" viewBox="0 0 320 200" font-family="system-ui, -apple-system, sans-serif">
  <rect width="320" height="200" fill="#0f172a"/>
  <rect x="20" y="24" width="180" height="6" rx="2" fill="#e2e8f0"/>
  <rect x="20" y="36" width="120" height="4" rx="2" fill="#64748b"/>
  <line x1="20" y1="70" x2="300" y2="70" stroke="#334155" stroke-width="1"/>
  <line x1="20" y1="165" x2="300" y2="165" stroke="#334155" stroke-width="1"/>
  <line x1="60" y1="75" x2="60" y2="160" stroke="#334155" stroke-width="1"/>
  <line x1="100" y1="75" x2="100" y2="160" stroke="#334155" stroke-width="1"/>
  <line x1="200" y1="75" x2="200" y2="160" stroke="#334155" stroke-width="1"/>
  <line x1="240" y1="75" x2="240" y2="160" stroke="#334155" stroke-width="1"/>
  <line x1="280" y1="75" x2="280" y2="160" stroke="#334155" stroke-width="1"/>
  <text x="28" y="90" fill="#e2e8f0" font-size="8" font-weight="600">01</text>
  <rect x="28" y="145" width="22" height="3" rx="1" fill="#94a3b8"/>
  <text x="68" y="90" fill="#e2e8f0" font-size="8" font-weight="600">02</text>
  <rect x="68" y="145" width="22" height="3" rx="1" fill="#94a3b8"/>
  <text x="108" y="90" fill="#e2e8f0" font-size="8" font-weight="600">03</text>
  <rect x="108" y="138" width="80" height="3" rx="1" fill="#e2e8f0"/>
  <rect x="108" y="145" width="80" height="2" rx="1" fill="#64748b"/>
  <rect x="108" y="150" width="68" height="2" rx="1" fill="#64748b"/>
  <rect x="108" y="155" width="72" height="2" rx="1" fill="#64748b"/>
  <circle cx="148" cy="115" r="10" fill="none" stroke="#6366f1" stroke-width="1.5"/>
  <text x="148" y="119" fill="#6366f1" font-size="6" text-anchor="middle">Hover</text>
  <text x="208" y="90" fill="#e2e8f0" font-size="8" font-weight="600">04</text>
  <rect x="208" y="145" width="22" height="3" rx="1" fill="#94a3b8"/>
  <text x="248" y="90" fill="#e2e8f0" font-size="8" font-weight="600">05</text>
  <rect x="248" y="145" width="22" height="3" rx="1" fill="#94a3b8"/>
  <text x="160" y="188" fill="#64748b" font-size="11" text-anchor="middle" font-weight="500">Expanding Hover List</text>
</svg>
