<svg xmlns="http://www.w3.org/2000/svg" width="192" height="120" viewBox="0 0 320 200" font-family="system-ui, -apple-system, sans-serif">
  <rect width="320" height="200" fill="#0f172a"/>
  
    <rect x="20" y="40" width="85" height="110" rx="4" fill="#1e293b"/><circle cx="62" cy="75" r="18" fill="#f59e0b"/><polygon points="56,66 56,84 72,75" fill="#0f172a"/><rect x="30" y="110" width="65" height="4" rx="2" fill="#e2e8f0"/><rect x="30" y="120" width="45" height="3" rx="2" fill="#64748b"/>
    <rect x="117" y="40" width="85" height="110" rx="4" fill="#1e293b"/><circle cx="160" cy="75" r="18" fill="#f59e0b"/><polygon points="154,66 154,84 170,75" fill="#0f172a"/><rect x="127" y="110" width="65" height="4" rx="2" fill="#e2e8f0"/><rect x="127" y="120" width="45" height="3" rx="2" fill="#64748b"/>
    <rect x="215" y="40" width="85" height="110" rx="4" fill="#1e293b"/><circle cx="257" cy="75" r="18" fill="#f59e0b"/><polygon points="251,66 251,84 267,75" fill="#0f172a"/><rect x="225" y="110" width="65" height="4" rx="2" fill="#e2e8f0"/><rect x="225" y="120" width="45" height="3" rx="2" fill="#64748b"/>
    <text x="160" y="188" fill="#64748b" font-size="11" text-anchor="middle" font-weight="500">Podcast Grid</text>
</svg>