<svg xmlns="http://www.w3.org/2000/svg" width="192" height="120" viewBox="0 0 320 200" font-family="system-ui, -apple-system, sans-serif">
  <rect width="320" height="200" fill="#0f172a"/>
  
    <rect x="40" y="24" width="100" height="8" rx="2" fill="#f59e0b"/><rect x="40" y="38" width="180" height="10" rx="2" fill="#e2e8f0"/>
    <rect x="20" y="60" width="85" height="100" rx="4" fill="#1e293b"/><polygon points="25,120 55,90 105,140 105,155 25,155" fill="#64748b"/>
    <rect x="117" y="60" width="85" height="100" rx="4" fill="#1e293b"/><polygon points="122,120 152,90 202,140 202,155 122,155" fill="#64748b"/>
    <rect x="215" y="60" width="85" height="100" rx="4" fill="#1e293b"/><polygon points="220,120 250,90 300,140 300,155 220,155" fill="#64748b"/>
    <text x="160" y="188" fill="#64748b" font-size="11" text-anchor="middle" font-weight="500">Showcase Card Grid</text>
</svg>