<svg xmlns="http://www.w3.org/2000/svg" width="192" height="120" viewBox="0 0 320 200" font-family="system-ui, -apple-system, sans-serif">
  <rect width="320" height="200" fill="#0f172a"/>
  
    <rect x="40" y="25" width="120" height="6" rx="2" fill="#e2e8f0"/>
    <polygon points="15,90 25,80 25,100" fill="#f59e0b"/>
    <rect x="35" y="40" width="75" height="115" rx="4" fill="#1e293b"/><rect x="45" y="50" width="55" height="40" rx="2" fill="#64748b"/><rect x="45" y="100" width="55" height="5" rx="2" fill="#e2e8f0"/><rect x="45" y="112" width="45" height="3" rx="2" fill="#64748b"/><rect x="45" y="122" width="55" height="3" rx="2" fill="#64748b"/>
    <rect x="118" y="40" width="75" height="115" rx="4" fill="#1e293b"/><rect x="128" y="50" width="55" height="40" rx="2" fill="#64748b"/><rect x="128" y="100" width="55" height="5" rx="2" fill="#e2e8f0"/><rect x="128" y="112" width="45" height="3" rx="2" fill="#64748b"/><rect x="128" y="122" width="55" height="3" rx="2" fill="#64748b"/>
    <rect x="201" y="40" width="75" height="115" rx="4" fill="#1e293b"/><rect x="211" y="50" width="55" height="40" rx="2" fill="#64748b"/><rect x="211" y="100" width="55" height="5" rx="2" fill="#e2e8f0"/><rect x="211" y="112" width="45" height="3" rx="2" fill="#64748b"/><rect x="211" y="122" width="55" height="3" rx="2" fill="#64748b"/>
    <polygon points="305,90 295,80 295,100" fill="#f59e0b"/>
    <text x="160" y="188" fill="#64748b" font-size="11" text-anchor="middle" font-weight="500">Article Carousel</text>
</svg>