<svg xmlns="http://www.w3.org/2000/svg" width="192" height="120" viewBox="0 0 320 200" font-family="system-ui, -apple-system, sans-serif">
  <rect width="320" height="200" fill="#0f172a"/>
  
    <rect x="40" y="30" width="120" height="8" rx="2" fill="#e2e8f0"/>
    <rect x="30" y="50" width="260" height="22" rx="4" fill="#1e293b"/><text x="42" y="66" fill="#f59e0b" font-size="11">♪</text><rect x="58" y="58" width="140" height="4" rx="2" fill="#e2e8f0"/><rect x="240" y="58" width="40" height="3" rx="2" fill="#64748b"/>
    <rect x="30" y="78" width="260" height="22" rx="4" fill="#1e293b"/><text x="42" y="94" fill="#f59e0b" font-size="11">♪</text><rect x="58" y="86" width="140" height="4" rx="2" fill="#e2e8f0"/><rect x="240" y="86" width="40" height="3" rx="2" fill="#64748b"/>
    <rect x="30" y="106" width="260" height="22" rx="4" fill="#1e293b"/><text x="42" y="122" fill="#f59e0b" font-size="11">♪</text><rect x="58" y="114" width="140" height="4" rx="2" fill="#e2e8f0"/><rect x="240" y="114" width="40" height="3" rx="2" fill="#64748b"/>
    <rect x="30" y="134" width="260" height="22" rx="4" fill="#1e293b"/><text x="42" y="150" fill="#f59e0b" font-size="11">♪</text><rect x="58" y="142" width="140" height="4" rx="2" fill="#e2e8f0"/><rect x="240" y="142" width="40" height="3" rx="2" fill="#64748b"/>
    <text x="160" y="188" fill="#64748b" font-size="11" text-anchor="middle" font-weight="500">Song List</text>
</svg>