<svg xmlns="http://www.w3.org/2000/svg" width="192" height="120" viewBox="0 0 320 200" font-family="system-ui, -apple-system, sans-serif">
  <rect width="320" height="200" fill="#0f172a"/>

  <rect x="60" y="24" width="55" height="5" rx="2" fill="#64748b"/>
  <rect x="130" y="24" width="55" height="5" rx="2" fill="#e2e8f0"/>
  <rect x="130" y="32" width="55" height="2" rx="1" fill="#f59e0b"/>
  <rect x="200" y="24" width="55" height="5" rx="2" fill="#64748b"/>
  <rect x="40" y="42" width="240" height="1" fill="#334155"/>

  <rect x="20" y="62" width="130" height="100" rx="6" fill="#1e293b"/>
  <polygon points="30,122 65,92 115,132 140,112 140,155 30,155" fill="#64748b"/>
  <circle cx="55" cy="100" r="6" fill="#94a3b8"/>

  <rect x="162" y="72" width="118" height="6" rx="2" fill="#e2e8f0"/>
  <rect x="162" y="86" width="118" height="3" rx="1" fill="#64748b"/>
  <rect x="162" y="94" width="110" height="3" rx="1" fill="#64748b"/>
  <rect x="162" y="102" width="90" height="3" rx="1" fill="#64748b"/>
  <rect x="162" y="132" width="56" height="12" rx="6" fill="#f59e0b"/>

  <text x="160" y="188" fill="#64748b" font-size="11" text-anchor="middle" font-weight="500">Tabbed Feature</text>
</svg>
