<svg xmlns="http://www.w3.org/2000/svg" width="192" height="120" viewBox="0 0 320 200" font-family="system-ui, -apple-system, sans-serif">
  <rect width="320" height="200" fill="#0f172a"/>
  
    <rect x="30" y="40" width="85" height="120" rx="4" fill="#1e293b"/><circle cx="72" cy="75" r="18" fill="#64748b"/><rect x="45" y="110" width="55" height="4" rx="2" fill="#e2e8f0"/><rect x="52" y="120" width="40" height="3" rx="2" fill="#64748b"/>
    <rect x="120" y="40" width="85" height="120" rx="4" fill="#1e293b"/><circle cx="162" cy="75" r="18" fill="#64748b"/><rect x="135" y="110" width="55" height="4" rx="2" fill="#e2e8f0"/><rect x="142" y="120" width="40" height="3" rx="2" fill="#64748b"/>
    <rect x="210" y="40" width="85" height="120" rx="4" fill="#1e293b"/><circle cx="252" cy="75" r="18" fill="#64748b"/><rect x="225" y="110" width="55" height="4" rx="2" fill="#e2e8f0"/><rect x="232" y="120" width="40" height="3" rx="2" fill="#64748b"/>
    <text x="160" y="188" fill="#64748b" font-size="11" text-anchor="middle" font-weight="500">Team / People</text>
</svg>