<svg xmlns="http://www.w3.org/2000/svg" width="1600" height="1000" viewBox="0 0 1600 1000" role="img" aria-labelledby="title desc">
  <title id="title">Agentic coding workflow</title>
  <desc id="desc">A stylised workflow showing prompts, code changes, checks, and deployment.</desc>
  <rect width="1600" height="1000" fill="#e8e0d2"/>
  <rect x="130" y="135" width="1340" height="730" rx="42" fill="#fefcf7"/>
  <rect x="205" y="220" width="315" height="560" rx="28" fill="#101818"/>
  <rect x="555" y="220" width="490" height="560" rx="28" fill="#26342f"/>
  <rect x="1080" y="220" width="315" height="560" rx="28" fill="#2f7d6d"/>
  <rect x="245" y="275" width="220" height="34" rx="17" fill="#d28a50"/>
  <rect x="245" y="350" width="220" height="24" rx="12" fill="#f5f1e8" opacity="0.76"/>
  <rect x="245" y="395" width="175" height="24" rx="12" fill="#f5f1e8" opacity="0.5"/>
  <rect x="610" y="280" width="360" height="34" rx="17" fill="#f5f1e8"/>
  <rect x="610" y="360" width="320" height="24" rx="12" fill="#f5f1e8" opacity="0.62"/>
  <rect x="610" y="405" width="275" height="24" rx="12" fill="#f5f1e8" opacity="0.48"/>
  <rect x="610" y="500" width="150" height="76" rx="18" fill="#d28a50"/>
  <rect x="800" y="500" width="150" height="76" rx="18" fill="#2f7d6d"/>
  <rect x="1130" y="285" width="210" height="42" rx="18" fill="#fefcf7"/>
  <rect x="1130" y="380" width="210" height="30" rx="15" fill="#fefcf7" opacity="0.7"/>
  <rect x="1130" y="445" width="175" height="30" rx="15" fill="#fefcf7" opacity="0.52"/>
  <rect x="1130" y="560" width="210" height="95" rx="18" fill="#d28a50"/>
  <text x="245" y="705" fill="#f5f1e8" font-family="Arial, sans-serif" font-size="28" font-weight="700">PROMPT</text>
  <text x="610" y="705" fill="#f5f1e8" font-family="Arial, sans-serif" font-size="28" font-weight="700">PATCH + CHECK</text>
  <text x="1130" y="705" fill="#f5f1e8" font-family="Arial, sans-serif" font-size="28" font-weight="700">DEPLOY</text>
</svg>
