<svg xmlns="http://www.w3.org/2000/svg" width="1400" height="1000" viewBox="0 0 1400 1000" role="img" aria-labelledby="title desc">
  <title id="title">TinaCMS editor preview</title>
  <desc id="desc">A stylised content editor beside a website preview.</desc>
  <rect width="1400" height="1000" fill="#f5f1e8"/>
  <rect x="90" y="120" width="1220" height="760" rx="36" fill="#26342f"/>
  <rect x="135" y="175" width="360" height="650" rx="24" fill="#fefcf7"/>
  <rect x="535" y="175" width="730" height="650" rx="24" fill="#101818"/>
  <rect x="175" y="230" width="250" height="38" rx="14" fill="#2f7d6d"/>
  <rect x="175" y="310" width="270" height="26" rx="13" fill="#d7d0c2"/>
  <rect x="175" y="362" width="220" height="26" rx="13" fill="#d7d0c2"/>
  <rect x="175" y="414" width="250" height="26" rx="13" fill="#d7d0c2"/>
  <rect x="175" y="500" width="280" height="84" rx="18" fill="#e8e0d2"/>
  <rect x="175" y="615" width="280" height="84" rx="18" fill="#e8e0d2"/>
  <rect x="600" y="245" width="390" height="54" rx="18" fill="#d28a50"/>
  <rect x="600" y="340" width="500" height="34" rx="17" fill="#f5f1e8" opacity="0.82"/>
  <rect x="600" y="402" width="390" height="28" rx="14" fill="#f5f1e8" opacity="0.52"/>
  <rect x="600" y="515" width="190" height="72" rx="18" fill="#2f7d6d"/>
  <rect x="830" y="515" width="190" height="72" rx="18" fill="#fefcf7"/>
  <rect x="600" y="675" width="560" height="80" rx="20" fill="#fefcf7" opacity="0.88"/>
  <text x="178" y="256" fill="#fffaf0" font-family="Arial, sans-serif" font-size="22" font-weight="700">CONTENT</text>
  <text x="625" y="280" fill="#101818" font-family="Arial, sans-serif" font-size="24" font-weight="700">LIVE PREVIEW</text>
</svg>
